<?xml version="1.0" encoding="UTF-8" standalone="no"?>
<!-- Created with Inkscape (http://www.inkscape.org/) -->

<svg
   xmlns:dc="http://purl.org/dc/elements/1.1/"
   xmlns:cc="http://creativecommons.org/ns#"
   xmlns:rdf="http://www.w3.org/1999/02/22-rdf-syntax-ns#"
   xmlns:svg="http://www.w3.org/2000/svg"
   xmlns="http://www.w3.org/2000/svg"
   xmlns:xlink="http://www.w3.org/1999/xlink"
   xmlns:sodipodi="http://sodipodi.sourceforge.net/DTD/sodipodi-0.dtd"
   xmlns:inkscape="http://www.inkscape.org/namespaces/inkscape"
   width="36"
   height="36"
   id="svg2"
   version="1.1"
   inkscape:version="0.48.0 r9654"
   sodipodi:docname="icon.ldpi.svg"
   inkscape:export-filename="/home/felix/Work/Java/Projects/Droidstack/res/drawable-ldpi/icon.png"
   inkscape:export-xdpi="90"
   inkscape:export-ydpi="90">
  <defs
     id="defs4">
    <linearGradient
       id="linearGradient3970">
      <stop
         id="stop3859"
         offset="0"
         style="stop-color:#ffffff;stop-opacity:1;" />
      <stop
         style="stop-color:#f7f7f7;stop-opacity:1;"
         offset="0.25"
         id="stop3871" />
      <stop
         style="stop-color:#f0f0f0;stop-opacity:1;"
         offset="1"
         id="stop3974" />
    </linearGradient>
    <linearGradient
       id="linearGradient3928">
      <stop
         style="stop-color:#000000;stop-opacity:1;"
         offset="0"
         id="stop3930" />
      <stop
         id="stop3936"
         offset="0.01"
         style="stop-color:#d0d0d0;stop-opacity:1;" />
      <stop
         style="stop-color:#000000;stop-opacity:1;"
         offset="1"
         id="stop3932" />
    </linearGradient>
    <linearGradient
       id="linearGradient3912">
      <stop
         id="stop3914"
         offset="0"
         style="stop-color:#000000;stop-opacity:1;" />
      <stop
         style="stop-color:#575757;stop-opacity:1;"
         offset="0.40938842"
         id="stop3916" />
      <stop
         id="stop3918"
         offset="1"
         style="stop-color:#000000;stop-opacity:1;" />
    </linearGradient>
    <linearGradient
       id="linearGradient3892">
      <stop
         style="stop-color:#000000;stop-opacity:1;"
         offset="0"
         id="stop3894" />
    </linearGradient>
    <linearGradient
       id="linearGradient3882">
      <stop
         style="stop-color:#c9df89;stop-opacity:1;"
         offset="0"
         id="stop3875" />
      <stop
         id="stop3877"
         offset="0.25"
         style="stop-color:#b7d461;stop-opacity:1;" />
      <stop
         style="stop-color:#a5ca3a;stop-opacity:1;"
         offset="1"
         id="stop3886" />
    </linearGradient>
    <linearGradient
       inkscape:collect="always"
       xlink:href="#linearGradient3882"
       id="linearGradient3888"
       x1="14.65649"
       y1="983.66144"
       x2="63.555607"
       y2="1049.0629"
       gradientUnits="userSpaceOnUse" />
    <linearGradient
       inkscape:collect="always"
       xlink:href="#linearGradient3882"
       id="linearGradient3910"
       gradientUnits="userSpaceOnUse"
       gradientTransform="matrix(0.57735345,0,0,0.57794962,3.215277,440.95607)"
       x1="35.999996"
       y1="995.14703"
       x2="35.999996"
       y2="1015.4358" />
    <linearGradient
       inkscape:collect="always"
       xlink:href="#linearGradient3970"
       id="linearGradient3913"
       gradientUnits="userSpaceOnUse"
       gradientTransform="matrix(0.57735345,0,0,0.57794962,3.215276,440.95607)"
       x1="36"
       y1="993.0929"
       x2="36"
       y2="1002.187" />
    <linearGradient
       inkscape:collect="always"
       xlink:href="#linearGradient3882"
       id="linearGradient3979"
       gradientUnits="userSpaceOnUse"
       gradientTransform="matrix(0.41869411,0,0,0.42022478,2.9270129,607.26164)"
       x1="35.999996"
       y1="995.14703"
       x2="35.999996"
       y2="1015.4358" />
    <linearGradient
       inkscape:collect="always"
       xlink:href="#linearGradient3970"
       id="linearGradient3981"
       gradientUnits="userSpaceOnUse"
       gradientTransform="matrix(0.41869411,0,0,0.42022478,2.9270122,607.26164)"
       x1="36"
       y1="993.0929"
       x2="36"
       y2="1002.187" />
    <filter
       inkscape:collect="always"
       id="filter5729"
       x="-0.093319985"
       width="1.18664"
       y="-0.16804327"
       height="1.3360865">
      <feGaussianBlur
         inkscape:collect="always"
         stdDeviation="0.86515402"
         id="feGaussianBlur5731" />
    </filter>
    <filter
       inkscape:collect="always"
       id="filter5735">
      <feGaussianBlur
         inkscape:collect="always"
         stdDeviation="0.43257701"
         id="feGaussianBlur5737" />
    </filter>
    <filter
       inkscape:collect="always"
       id="filter5739"
       x="-0.093319727"
       width="1.1866395"
       y="-0.1680441"
       height="1.3360882">
      <feGaussianBlur
         inkscape:collect="always"
         stdDeviation="0.86515163"
         id="feGaussianBlur5741" />
    </filter>
    <filter
       inkscape:collect="always"
       id="filter5745">
      <feGaussianBlur
         inkscape:collect="always"
         stdDeviation="0.43257582"
         id="feGaussianBlur5747" />
    </filter>
  </defs>
  <sodipodi:namedview
     id="base"
     pagecolor="#ffffff"
     bordercolor="#666666"
     borderopacity="1.0"
     inkscape:pageopacity="0.0"
     inkscape:pageshadow="2"
     inkscape:zoom="11.514211"
     inkscape:cx="11.830574"
     inkscape:cy="19.329219"
     inkscape:document-units="px"
     inkscape:current-layer="layer1"
     showgrid="false"
     inkscape:snap-bbox="true"
     inkscape:snap-page="true"
     inkscape:bbox-paths="false"
     inkscape:bbox-nodes="true"
     inkscape:snap-bbox-edge-midpoints="true"
     inkscape:window-width="1280"
     inkscape:window-height="951"
     inkscape:window-x="0"
     inkscape:window-y="24"
     inkscape:window-maximized="1" />
  <metadata
     id="metadata7">
    <rdf:RDF>
      <cc:Work
         rdf:about="">
        <dc:format>image/svg+xml</dc:format>
        <dc:type
           rdf:resource="http://purl.org/dc/dcmitype/StillImage" />
        <dc:title />
      </cc:Work>
    </rdf:RDF>
  </metadata>
  <g
     inkscape:label="Layer 1"
     inkscape:groupmode="layer"
     id="layer1"
     transform="translate(0,-1016.3622)">
    <path
       inkscape:connector-curvature="0"
       id="path5743"
       d="m 10.5,1035.4178 c -0.6993964,0.106 -1.300095,0.8547 -0.84375,1.6875 l 2.125,3.9062 c -2.9961869,1.6816 -4.90625,4.3699 -4.90625,6.75 l 22.25,0 c 0,-2.4319 -1.938823,-5.1167 -4.9375,-6.7812 l 2.125,-3.875 c 0.730151,-1.3324 -1.253708,-2.4245 -2,-1.0625 l -2.1875,4 c -1.263899,-0.426 -2.658809,-0.6563 -4.125,-0.6563 -1.491537,0 -2.881172,0.2494 -4.15625,0.6875 l -2.1875,-4.0312 c -0.27986,-0.5108 -0.736612,-0.6886 -1.15625,-0.625 z"
       style="fill:#000000;fill-opacity:1;stroke:#000000;stroke-width:1.35714256999999994;stroke-miterlimit:4;stroke-opacity:1;stroke-dasharray:none;filter:url(#filter5745)" />
    <path
       inkscape:connector-curvature="0"
       id="path5733"
       d="m 10.5,1021.1365 c -0.6993964,0.1061 -1.300095,0.8549 -0.84375,1.6875 l 2.125,3.9063 c -2.9961871,1.6816 -4.90625,4.3699 -4.90625,6.75 l 22.25,0 c 0,-2.432 -1.938823,-5.1167 -4.9375,-6.7813 l 2.125,-3.875 c 0.730151,-1.3323 -1.253708,-2.4245 -2,-1.0625 l -2.21875,4 c -1.256288,-0.4201 -2.638483,-0.6562 -4.09375,-0.6562 -1.480703,0 -2.85733,0.2552 -4.125,0.6875 l -2.21875,-4.0313 c -0.27986,-0.5107 -0.736612,-0.6886 -1.15625,-0.625 z"
       style="fill:#000000;fill-opacity:1;stroke:#000000;stroke-width:1.35714256999999994;stroke-miterlimit:4;stroke-opacity:1;stroke-dasharray:none;filter:url(#filter5735)" />
    <path
       style="fill:#000000;fill-opacity:1;stroke:#000000;stroke-width:1.35714256999999994;stroke-miterlimit:4;stroke-opacity:1;stroke-dasharray:none;filter:url(#filter5729)"
       d="m 10.5,1021.1365 c -0.6993964,0.1061 -1.300095,0.8549 -0.84375,1.6875 l 2.125,3.9063 c -2.9961871,1.6816 -4.90625,4.3699 -4.90625,6.75 l 22.25,0 c 0,-2.432 -1.938823,-5.1167 -4.9375,-6.7813 l 2.125,-3.875 c 0.730151,-1.3323 -1.253708,-2.4245 -2,-1.0625 l -2.21875,4 c -1.256288,-0.4201 -2.638483,-0.6562 -4.09375,-0.6562 -1.480703,0 -2.85733,0.2552 -4.125,0.6875 l -2.21875,-4.0313 c -0.27986,-0.5107 -0.736612,-0.6886 -1.15625,-0.625 z"
       id="path3994"
       inkscape:connector-curvature="0" />
    <path
       style="fill:#000000;fill-opacity:1;stroke:#000000;stroke-width:1.35714256999999994;stroke-miterlimit:4;stroke-opacity:1;stroke-dasharray:none;filter:url(#filter5739)"
       d="m 10.5,1035.4178 c -0.6993964,0.106 -1.300095,0.8547 -0.84375,1.6875 l 2.125,3.9062 c -2.9961869,1.6816 -4.90625,4.3699 -4.90625,6.75 l 22.25,0 c 0,-2.4319 -1.938823,-5.1167 -4.9375,-6.7812 l 2.125,-3.875 c 0.730151,-1.3324 -1.253708,-2.4245 -2,-1.0625 l -2.1875,4 c -1.263899,-0.426 -2.658809,-0.6563 -4.125,-0.6563 -1.491537,0 -2.881172,0.2494 -4.15625,0.6875 l -2.1875,-4.0312 c -0.27986,-0.5108 -0.736612,-0.6886 -1.15625,-0.625 z"
       id="path3983"
       inkscape:connector-curvature="0" />
    <path
       style="fill:#a5ca3a;fill-opacity:1;stroke:#f0f0f0;stroke-width:1.35714257;stroke-miterlimit:4;stroke-opacity:1;stroke-dasharray:none"
       d="m 12.632156,1042.4791 -2.9911795,-5.4581 c -0.730152,-1.3324 1.2542565,-2.4296 2.0005485,-1.0676 l 2.99118,5.4581 z"
       id="path3785"
       inkscape:connector-curvature="0"
       sodipodi:nodetypes="ccccc" />
    <path
       sodipodi:nodetypes="ccccc"
       inkscape:connector-curvature="0"
       id="path3828"
       d="m 23.320696,1042.4791 2.99118,-5.4581 c 0.730151,-1.3324 -1.254258,-2.4296 -2.00055,-1.0676 l -2.99118,5.4581 z"
       style="fill:#a5ca3a;fill-opacity:1;stroke:#f0f0f0;stroke-width:1.35714257;stroke-miterlimit:4;stroke-opacity:1;stroke-dasharray:none" />
    <path
       style="fill:#a5ca3a;fill-opacity:1;stroke:#f0f0f0;stroke-width:1.35714257;stroke-miterlimit:4;stroke-opacity:1;stroke-dasharray:none"
       d="m 6.8813225,1047.6836 22.2373525,0 c 0,-3.8543 -4.820906,-8.3919 -11.118676,-8.3919 -6.356188,0 -11.1186765,4.6198 -11.1186765,8.3919 z"
       id="path3783"
       inkscape:connector-curvature="0"
       sodipodi:nodetypes="cccc" />
    <path
       transform="matrix(0.66133396,0,0,0.66827026,-5.766689,1018.0227)"
       d="m 29.875,39.75 c 0,0.828427 -0.671573,1.5 -1.5,1.5 -0.828427,0 -1.5,-0.671573 -1.5,-1.5 0,-0.828427 0.671573,-1.5 1.5,-1.5 0.828427,0 1.5,0.671573 1.5,1.5 z"
       sodipodi:ry="1.5"
       sodipodi:rx="1.5"
       sodipodi:cy="39.75"
       sodipodi:cx="28.375"
       id="path3768-7"
       style="fill:#ffffff;fill-opacity:1;stroke:none"
       sodipodi:type="arc" />
    <path
       sodipodi:type="arc"
       style="fill:#ffffff;fill-opacity:1;stroke:none"
       id="path3770-8"
       sodipodi:cx="28.375"
       sodipodi:cy="39.75"
       sodipodi:rx="1.5"
       sodipodi:ry="1.5"
       d="m 29.875,39.75 c 0,0.828427 -0.671573,1.5 -1.5,1.5 -0.828427,0 -1.5,-0.671573 -1.5,-1.5 0,-0.828427 0.671573,-1.5 1.5,-1.5 0.828427,0 1.5,0.671573 1.5,1.5 z"
       transform="matrix(0.66133396,0,0,0.66827026,4.2359871,1018.0227)" />
    <path
       sodipodi:nodetypes="ccccc"
       inkscape:connector-curvature="0"
       id="path3830"
       d="m 12.632156,1028.1915 -2.9911795,-5.4582 c -0.730152,-1.3323 1.2542565,-2.4295 2.0005485,-1.0675 l 2.99118,5.4581 z"
       style="fill:#a5ca3a;fill-opacity:1;stroke:#f0f0f0;stroke-width:1.35714257;stroke-miterlimit:4;stroke-opacity:1;stroke-dasharray:none" />
    <path
       style="fill:#a5ca3a;fill-opacity:1;stroke:#f0f0f0;stroke-width:1.35714257;stroke-miterlimit:4;stroke-opacity:1;stroke-dasharray:none"
       d="m 23.320696,1028.1915 2.99118,-5.4582 c 0.730151,-1.3323 -1.254258,-2.4295 -2.00055,-1.0675 l -2.99118,5.4581 z"
       id="path3832"
       inkscape:connector-curvature="0"
       sodipodi:nodetypes="ccccc" />
    <path
       sodipodi:nodetypes="cccc"
       inkscape:connector-curvature="0"
       id="path3834"
       d="m 6.881324,1033.396 22.237353,0 c 0,-3.8543 -4.820906,-8.3919 -11.118676,-8.3919 -6.356187,0 -11.118677,4.6198 -11.118677,8.3919 z"
       style="fill:url(#linearGradient3979);fill-opacity:1;stroke:url(#linearGradient3981);stroke-width:1.35714257;stroke-miterlimit:4;stroke-opacity:1;stroke-dasharray:none" />
    <path
       sodipodi:type="arc"
       style="fill:#ffffff;fill-opacity:1;stroke:none"
       id="path3836"
       sodipodi:cx="28.375"
       sodipodi:cy="39.75"
       sodipodi:rx="1.5"
       sodipodi:ry="1.5"
       d="m 29.875,39.75 c 0,0.828427 -0.671573,1.5 -1.5,1.5 -0.828427,0 -1.5,-0.671573 -1.5,-1.5 0,-0.828427 0.671573,-1.5 1.5,-1.5 0.828427,0 1.5,0.671573 1.5,1.5 z"
       transform="matrix(0.66133396,0,0,0.66827026,-5.766689,1003.7351)" />
    <path
       transform="matrix(0.66133396,0,0,0.66827026,4.2359871,1003.7351)"
       d="m 29.875,39.75 c 0,0.828427 -0.671573,1.5 -1.5,1.5 -0.828427,0 -1.5,-0.671573 -1.5,-1.5 0,-0.828427 0.671573,-1.5 1.5,-1.5 0.828427,0 1.5,0.671573 1.5,1.5 z"
       sodipodi:ry="1.5"
       sodipodi:rx="1.5"
       sodipodi:cy="39.75"
       sodipodi:cx="28.375"
       id="path3838"
       style="fill:#ffffff;fill-opacity:1;stroke:none"
       sodipodi:type="arc" />
  </g>
</svg>
