<?xml version="1.0" encoding="UTF-8" standalone="no"?>
<!-- Created with Inkscape (http://www.inkscape.org/) -->

<svg
   xmlns:dc="http://purl.org/dc/elements/1.1/"
   xmlns:cc="http://creativecommons.org/ns#"
   xmlns:rdf="http://www.w3.org/1999/02/22-rdf-syntax-ns#"
   xmlns:svg="http://www.w3.org/2000/svg"
   xmlns="http://www.w3.org/2000/svg"
   xmlns:xlink="http://www.w3.org/1999/xlink"
   xmlns:sodipodi="http://sodipodi.sourceforge.net/DTD/sodipodi-0.dtd"
   xmlns:inkscape="http://www.inkscape.org/namespaces/inkscape"
   width="48"
   height="48"
   id="svg2"
   version="1.1"
   inkscape:version="0.48.0 r9654"
   sodipodi:docname="icon.mdpi.svg"
   inkscape:export-filename="/home/felix/Work/Java/Projects/Droidstack/res/drawable-mdpi/icon.png"
   inkscape:export-xdpi="90"
   inkscape:export-ydpi="90">
  <defs
     id="defs4">
    <linearGradient
       id="linearGradient3970">
      <stop
         id="stop3859"
         offset="0"
         style="stop-color:#ffffff;stop-opacity:1;" />
      <stop
         style="stop-color:#f7f7f7;stop-opacity:1;"
         offset="0.25"
         id="stop3871" />
      <stop
         style="stop-color:#f0f0f0;stop-opacity:1;"
         offset="1"
         id="stop3974" />
    </linearGradient>
    <linearGradient
       id="linearGradient3928">
      <stop
         style="stop-color:#000000;stop-opacity:1;"
         offset="0"
         id="stop3930" />
      <stop
         id="stop3936"
         offset="0.01"
         style="stop-color:#d0d0d0;stop-opacity:1;" />
      <stop
         style="stop-color:#000000;stop-opacity:1;"
         offset="1"
         id="stop3932" />
    </linearGradient>
    <linearGradient
       id="linearGradient3912">
      <stop
         id="stop3914"
         offset="0"
         style="stop-color:#000000;stop-opacity:1;" />
      <stop
         style="stop-color:#575757;stop-opacity:1;"
         offset="0.40938842"
         id="stop3916" />
      <stop
         id="stop3918"
         offset="1"
         style="stop-color:#000000;stop-opacity:1;" />
    </linearGradient>
    <linearGradient
       id="linearGradient3892">
      <stop
         style="stop-color:#000000;stop-opacity:1;"
         offset="0"
         id="stop3894" />
    </linearGradient>
    <linearGradient
       id="linearGradient3882">
      <stop
         style="stop-color:#c9df89;stop-opacity:1;"
         offset="0"
         id="stop3875" />
      <stop
         id="stop3877"
         offset="0.25"
         style="stop-color:#b7d461;stop-opacity:1;" />
      <stop
         style="stop-color:#a5ca3a;stop-opacity:1;"
         offset="1"
         id="stop3886" />
    </linearGradient>
    <linearGradient
       inkscape:collect="always"
       xlink:href="#linearGradient3882"
       id="linearGradient3888"
       x1="14.65649"
       y1="983.66144"
       x2="63.555607"
       y2="1049.0629"
       gradientUnits="userSpaceOnUse" />
    <linearGradient
       inkscape:collect="always"
       xlink:href="#linearGradient3882"
       id="linearGradient3849"
       gradientUnits="userSpaceOnUse"
       gradientTransform="matrix(0.56524947,0,0,0.56781016,3.6510208,451.26143)"
       x1="35.999996"
       y1="995.14703"
       x2="35.999996"
       y2="1015.4358" />
    <linearGradient
       inkscape:collect="always"
       xlink:href="#linearGradient3970"
       id="linearGradient3851"
       gradientUnits="userSpaceOnUse"
       gradientTransform="matrix(0.56524947,0,0,0.56781016,3.6510197,451.26143)"
       x1="36"
       y1="993.0929"
       x2="36"
       y2="1002.187" />
    <filter
       inkscape:collect="always"
       id="filter3814"
       x="-0.1320041"
       width="1.2640082"
       y="-0.10999715"
       height="1.2199943">
      <feGaussianBlur
         inkscape:collect="always"
         stdDeviation="1.6500513"
         id="feGaussianBlur3816" />
    </filter>
    <filter
       inkscape:collect="always"
       id="filter3820">
      <feGaussianBlur
         inkscape:collect="always"
         stdDeviation="0.82502563"
         id="feGaussianBlur3822" />
    </filter>
  </defs>
  <sodipodi:namedview
     id="base"
     pagecolor="#ffffff"
     bordercolor="#666666"
     borderopacity="1.0"
     inkscape:pageopacity="0.0"
     inkscape:pageshadow="2"
     inkscape:zoom="10.855072"
     inkscape:cx="28"
     inkscape:cy="20.5"
     inkscape:document-units="px"
     inkscape:current-layer="layer1"
     showgrid="false"
     inkscape:snap-bbox="true"
     inkscape:snap-page="true"
     inkscape:bbox-paths="false"
     inkscape:bbox-nodes="true"
     inkscape:snap-bbox-edge-midpoints="true"
     inkscape:window-width="1280"
     inkscape:window-height="951"
     inkscape:window-x="0"
     inkscape:window-y="24"
     inkscape:window-maximized="1" />
  <metadata
     id="metadata7">
    <rdf:RDF>
      <cc:Work
         rdf:about="">
        <dc:format>image/svg+xml</dc:format>
        <dc:type
           rdf:resource="http://purl.org/dc/dcmitype/StillImage" />
        <dc:title></dc:title>
      </cc:Work>
    </rdf:RDF>
  </metadata>
  <g
     inkscape:label="Layer 1"
     inkscape:groupmode="layer"
     id="layer1"
     transform="translate(0,-1004.3622)">
    <path
       id="path3818"
       transform="translate(0,1004.3622)"
       d="M 14.15625 6 C 13.10363 5.960798 12.041063 7.0436125 12.71875 8.28125 L 15.59375 13.53125 C 11.54581 15.803188 9 19.470019 9 22.6875 L 39 22.6875 C 39 19.39995 36.426279 15.748845 32.375 13.5 L 35.21875 8.28125 C 36.204477 6.48105 33.538766 5.00335 32.53125 6.84375 L 29.53125 12.28125 C 27.829974 11.709501 25.972182 11.34375 24 11.34375 C 21.998658 11.34375 20.119251 11.695876 18.40625 12.28125 L 15.40625 6.84375 C 15.091401 6.268625 14.634714 6.0178191 14.15625 6 z M 13.84375 25.3125 C 12.899544 25.45576 12.102671 26.468625 12.71875 27.59375 L 15.59375 32.84375 C 11.546525 35.115763 9 38.78291 9 42 L 39 42 C 39 38.71245 36.426279 35.061345 32.375 32.8125 L 35.21875 27.59375 C 36.204477 25.79355 33.538766 24.31585 32.53125 26.15625 L 29.5625 31.5625 C 27.853734 30.984978 25.982948 30.65625 24 30.65625 C 21.998658 30.65625 20.119251 31.008369 18.40625 31.59375 L 15.40625 26.15625 C 15.028431 25.4661 14.410274 25.226544 13.84375 25.3125 z "
       style="fill:#000000;fill-opacity:1;stroke:#000000;stroke-width:1.99999988000000006;stroke-miterlimit:4;stroke-opacity:1;stroke-dasharray:none;filter:url(#filter3820)" />
    <path
       style="fill:#000000;fill-opacity:1;stroke:#000000;stroke-width:1.99999988;stroke-miterlimit:4;stroke-opacity:1;stroke-dasharray:none;filter:url(#filter3814)"
       d="m 14.15625,1010.5464 c -1.05262,-0.039 -2.115187,1.0436 -1.4375,2.2813 l 2.875,5.25 C 11.54581,1020.3496 9,1024.0164 9,1027.2339 l 30,0 c 0,-3.2875 -2.573721,-6.9386 -6.625,-9.1875 l 2.84375,-5.2187 c 0.985727,-1.8002 -1.679984,-3.2779 -2.6875,-1.4375 l -3,5.4375 c -1.701276,-0.5718 -3.559068,-0.9375 -5.53125,-0.9375 -2.001342,0 -3.880749,0.3521 -5.59375,0.9375 l -3,-5.4375 c -0.314849,-0.5752 -0.771536,-0.826 -1.25,-0.8438 z m -0.3125,19.3125 c -0.944206,0.1433 -1.741079,1.1561 -1.125,2.2813 l 2.875,5.25 C 11.546525,1039.6622 9,1043.3293 9,1046.5464 l 30,0 c 0,-3.2875 -2.573721,-6.9386 -6.625,-9.1875 l 2.84375,-5.2187 c 0.985727,-1.8002 -1.679984,-3.2779 -2.6875,-1.4375 l -2.96875,5.4062 c -1.708766,-0.5775 -3.579552,-0.9062 -5.5625,-0.9062 -2.001342,0 -3.880749,0.3521 -5.59375,0.9375 l -3,-5.4375 c -0.377819,-0.6902 -0.995976,-0.9297 -1.5625,-0.8438 z"
       id="path3033"
       inkscape:connector-curvature="0" />
    <path
       style="fill:#a5ca3a;fill-opacity:1;stroke:#f0f0f0;stroke-width:1.99999988;stroke-miterlimit:4;stroke-opacity:1;stroke-dasharray:none"
       d="m 16.753251,1039.3299 -4.038181,-7.3752 c -0.985727,-1.8002 1.693284,-3.2828 2.700801,-1.4424 l 4.038182,7.375 z"
       id="path3785"
       inkscape:connector-curvature="0"
       sodipodi:nodetypes="ccccc" />
    <path
       sodipodi:nodetypes="ccccc"
       inkscape:connector-curvature="0"
       id="path3828"
       d="m 31.183099,1039.3299 4.038181,-7.3752 c 0.985727,-1.8002 -1.693285,-3.2828 -2.700801,-1.4424 l -4.038182,7.375 z"
       style="fill:#a5ca3a;fill-opacity:1;stroke:#f0f0f0;stroke-width:1.99999988;stroke-miterlimit:4;stroke-opacity:1;stroke-dasharray:none" />
    <path
       style="fill:#a5ca3a;fill-opacity:1;stroke:#f0f0f0;stroke-width:1.99999988;stroke-miterlimit:4;stroke-opacity:1;stroke-dasharray:none"
       d="m 8.989456,1046.3622 30.021087,0 c 0,-5.208 -6.508366,-11.3392 -15.010543,-11.3392 -8.581042,0 -15.010544,6.2423 -15.010544,11.3392 z"
       id="path3783"
       inkscape:connector-curvature="0"
       sodipodi:nodetypes="cccc" />
    <path
       transform="matrix(0.89282046,0,0,0.90297063,-8.085735,1006.2842)"
       d="m 29.875,39.75 a 1.5,1.5 0 1 1 -3,0 1.5,1.5 0 1 1 3,0 z"
       sodipodi:ry="1.5"
       sodipodi:rx="1.5"
       sodipodi:cy="39.75"
       sodipodi:cx="28.375"
       id="path3768-7"
       style="fill:#ffffff;fill-opacity:1;stroke:none"
       sodipodi:type="arc" />
    <path
       sodipodi:type="arc"
       style="fill:#ffffff;fill-opacity:1;stroke:none"
       id="path3770-8"
       sodipodi:cx="28.375"
       sodipodi:cy="39.75"
       sodipodi:rx="1.5"
       sodipodi:ry="1.5"
       d="m 29.875,39.75 a 1.5,1.5 0 1 1 -3,0 1.5,1.5 0 1 1 3,0 z"
       transform="matrix(0.89282046,0,0,0.90297063,5.4181742,1006.2842)" />
    <path
       sodipodi:nodetypes="ccccc"
       inkscape:connector-curvature="0"
       id="path3830"
       d="m 16.753251,1020.0243 -4.038181,-7.3751 c -0.985727,-1.8002 1.693284,-3.2828 2.700801,-1.4424 l 4.038182,7.3749 z"
       style="fill:#a5ca3a;fill-opacity:1;stroke:#f0f0f0;stroke-width:1.99999988;stroke-miterlimit:4;stroke-opacity:1;stroke-dasharray:none" />
    <path
       style="fill:#a5ca3a;fill-opacity:1;stroke:#f0f0f0;stroke-width:1.99999988;stroke-miterlimit:4;stroke-opacity:1;stroke-dasharray:none"
       d="m 31.183099,1020.0243 4.038181,-7.3751 c 0.985727,-1.8002 -1.693285,-3.2828 -2.700801,-1.4424 l -4.038182,7.3749 z"
       id="path3832"
       inkscape:connector-curvature="0"
       sodipodi:nodetypes="ccccc" />
    <path
       sodipodi:nodetypes="cccc"
       inkscape:connector-curvature="0"
       id="path3834"
       d="m 8.989457,1027.0567 30.021087,0 c 0,-5.208 -6.508366,-11.3392 -15.010543,-11.3392 -8.581042,0 -15.010544,6.2422 -15.010544,11.3392 z"
       style="fill:url(#linearGradient3849);fill-opacity:1;stroke:url(#linearGradient3851);stroke-width:1.99999988;stroke-miterlimit:4;stroke-opacity:1;stroke-dasharray:none" />
    <path
       sodipodi:type="arc"
       style="fill:#ffffff;fill-opacity:1;stroke:none"
       id="path3836"
       sodipodi:cx="28.375"
       sodipodi:cy="39.75"
       sodipodi:rx="1.5"
       sodipodi:ry="1.5"
       d="m 29.875,39.75 a 1.5,1.5 0 1 1 -3,0 1.5,1.5 0 1 1 3,0 z"
       transform="matrix(0.89282046,0,0,0.90297063,-8.085735,986.97865)" />
    <path
       transform="matrix(0.89282046,0,0,0.90297063,5.4181742,986.97865)"
       d="m 29.875,39.75 a 1.5,1.5 0 1 1 -3,0 1.5,1.5 0 1 1 3,0 z"
       sodipodi:ry="1.5"
       sodipodi:rx="1.5"
       sodipodi:cy="39.75"
       sodipodi:cx="28.375"
       id="path3838"
       style="fill:#ffffff;fill-opacity:1;stroke:none"
       sodipodi:type="arc" />
  </g>
</svg>
